<svg version="1.1" id="Capa_1" xmlns="http://www.w3.org/2000/svg" x="0" y="0" viewBox="0 0 512 512" xml:space="preserve"><path d="M508.875 248.458l-160-160c-3.063-3.042-7.615-3.969-11.625-2.313a10.655 10.655 0 0 0-6.583 9.854v21.333a10.66 10.66 0 0 0 3.125 7.542l109.792 109.792H10.667A10.662 10.662 0 0 0 0 245.333v21.333a10.66 10.66 0 0 0 10.667 10.667h432.917L333.792 387.125c-2 2-3.125 4.708-3.125 7.542V416c0 4.313 2.594 8.208 6.583 9.854a10.664 10.664 0 0 0 11.625-2.312l160-160c4.167-4.167 4.167-10.917 0-15.084z"/></svg>