<svg id="Capa_1" data-name="Capa 1" xmlns="http://www.w3.org/2000/svg" viewBox="0 0 15 15"><defs><style>.cls-1{fill:#fff}</style></defs><path class="cls-1" d="M6.56 0C2.94 0 0 2.4 0 5.34a4.9 4.9 0 0 0 2.07 3.9 3.2 3.2 0 0 1-1.71 1.55.47.47 0 0 0 .09.93h.12a10.24 10.24 0 0 0 4.48-1.18 7.44 7.44 0 0 0 1.51.15c3.62 0 6.57-2.4 6.57-5.35S10.18 0 6.56 0z"/><path class="cls-1" d="M14.64 14a2.48 2.48 0 0 1-1.36-1A4.2 4.2 0 0 0 15 9.71a4.06 4.06 0 0 0-1.18-2.8c-.84 2.71-3.77 4.72-7.26 4.72a8.94 8.94 0 0 1-1.37-.11c-.27.13-.53.24-.78.34a5.86 5.86 0 0 0 5 2.45 6.59 6.59 0 0 0 1.27-.12 7.36 7.36 0 0 0 3.29.81 5.66 5.66 0 0 0 .67 0 .47.47 0 0 0 .39-.45.46.46 0 0 0-.39-.55z"/></svg>