<svg id="Layer_1" data-name="Layer 1" xmlns="http://www.w3.org/2000/svg" viewBox="0 0 15 15"><defs><style>.cls-1{fill:#fff}</style></defs><path class="cls-1" d="M7.74 2.25a5 5 0 1 0 5 5 5 5 0 0 0-5-5zm0 8.74a3.77 3.77 0 1 1 3.77-3.77A3.77 3.77 0 0 1 7.74 11z"/><path class="cls-1" d="M7.74 4.46a2.76 2.76 0 1 0 2.76 2.76 2.77 2.77 0 0 0-2.76-2.76zm6.95 3.18v-6a.14.14 0 0 0-.1-.13.13.13 0 0 0-.15.05A5.71 5.71 0 0 0 13.28 5v2.18a.47.47 0 0 0 .46.46h.19c-.19 1.94-.31 4.67-.31 5a.83.83 0 0 0 .69.91.83.83 0 0 0 .69-.91c0-.33-.12-3.06-.31-5zM2 6.44a1.3 1.3 0 0 0 .64-1.13l-.19-3.09a.22.22 0 0 0-.44 0l.12 2.48a.26.26 0 0 1-.25.3.26.26 0 0 1-.26-.26l-.06-2.5a.24.24 0 0 0-.48 0L1 4.72A.26.26 0 0 1 .77 5a.26.26 0 0 1-.26-.26l.13-2.5A.23.23 0 0 0 .41 2a.22.22 0 0 0-.22.21L0 5.31a1.32 1.32 0 0 0 .64 1.13.74.74 0 0 1 .36.72C.78 9.11.63 12.28.63 12.63a.83.83 0 0 0 .69.91.83.83 0 0 0 .68-.91c0-.35-.15-3.52-.36-5.47A.76.76 0 0 1 2 6.44z"/></svg>