<svg id="Capa_1" data-name="Capa 1" xmlns="http://www.w3.org/2000/svg" viewBox="0 0 28 28"><path d="M14 0a14 14 0 1 0 14 14A14 14 0 0 0 14 0zM7.69 18.39L6 15.88h-.47v2.51H3.79V9.51h1.74v5.05h.4l1.44-2.31h1.94L7.32 15l2.29 3.37zm4-1.65a1 1 0 0 0 .95.5 1 1 0 0 0 .72-.25.87.87 0 0 0 .28-.69h1.52a1.92 1.92 0 0 1-.7 1.57 2.66 2.66 0 0 1-1.82.64 2.67 2.67 0 0 1-2.14-.88 3.37 3.37 0 0 1-.76-2.26v-.17a3.39 3.39 0 0 1 .72-2.2 2.66 2.66 0 0 1 2.14-.89 2.59 2.59 0 0 1 1.85.66 2.19 2.19 0 0 1 .68 1.75v.06H13.6a1.22 1.22 0 0 0-.27-.83.9.9 0 0 0-.73-.33 1 1 0 0 0-.95.51 2.69 2.69 0 0 0-.29 1.32v.17a2.74 2.74 0 0 0 .29 1.32zm8.08 1.65a2.43 2.43 0 0 1-.16-.44 3.55 3.55 0 0 1-.09-.47 2.23 2.23 0 0 1-.68.75 1.7 1.7 0 0 1-1 .3 2.06 2.06 0 0 1-1.5-.5 1.8 1.8 0 0 1-.53-1.37 1.64 1.64 0 0 1 .7-1.41 3.55 3.55 0 0 1 2.05-.49h1v-.5a1 1 0 0 0-.26-.7.93.93 0 0 0-.7-.25.92.92 0 0 0-.63.2.7.7 0 0 0-.23.55h-1.69a1.58 1.58 0 0 1 .68-1.36 3 3 0 0 1 1.9-.57 2.78 2.78 0 0 1 1.81.57 2 2 0 0 1 .69 1.61v2.56a4.21 4.21 0 0 0 .07.81 3 3 0 0 0 .21.75zm2.72 0V9.51h1.74v8.88z"/><path d="M17.7 15.94a.9.9 0 0 0-.27.66.64.64 0 0 0 .21.5.76.76 0 0 0 .56.19 1.54 1.54 0 0 0 .8-.21 1.57 1.57 0 0 0 .49-.51v-.92h-1a1.14 1.14 0 0 0-.79.29z"/></svg>