<svg xmlns="http://www.w3.org/2000/svg"><symbol viewBox="0 0 512 512" id="arrow" xmlns="http://www.w3.org/2000/svg"><path d="M508.875 248.458l-160-160c-3.063-3.042-7.615-3.969-11.625-2.313a10.655 10.655 0 0 0-6.583 9.854v21.333a10.66 10.66 0 0 0 3.125 7.542l109.792 109.792H10.667A10.662 10.662 0 0 0 0 245.333v21.333a10.66 10.66 0 0 0 10.667 10.667h432.917L333.792 387.125c-2 2-3.125 4.708-3.125 7.542V416c0 4.313 2.594 8.208 6.583 9.854a10.664 10.664 0 0 0 11.625-2.312l160-160c4.167-4.167 4.167-10.917 0-15.084z"/></symbol><symbol viewBox="0 0 492.004 492.004" id="arrow-right" xmlns="http://www.w3.org/2000/svg"><path d="M382.678 226.804L163.73 7.86C158.666 2.792 151.906 0 144.698 0s-13.968 2.792-19.032 7.86l-16.124 16.12c-10.492 10.504-10.492 27.576 0 38.064L293.398 245.9l-184.06 184.06c-5.064 5.068-7.86 11.824-7.86 19.028 0 7.212 2.796 13.968 7.86 19.04l16.124 16.116c5.068 5.068 11.824 7.86 19.032 7.86s13.968-2.792 19.032-7.86L382.678 265c5.076-5.084 7.864-11.872 7.848-19.088.016-7.244-2.772-14.028-7.848-19.108z"/></symbol><symbol id="chat" viewBox="0 0 15 15" xmlns="http://www.w3.org/2000/svg"><defs><style>.ccls-1{fill:#fff}</style></defs><path class="ccls-1" d="M6.56 0C2.94 0 0 2.4 0 5.34a4.9 4.9 0 0 0 2.07 3.9 3.2 3.2 0 0 1-1.71 1.55.47.47 0 0 0 .09.93h.12a10.24 10.24 0 0 0 4.48-1.18 7.44 7.44 0 0 0 1.51.15c3.62 0 6.57-2.4 6.57-5.35S10.18 0 6.56 0z"/><path class="ccls-1" d="M14.64 14a2.48 2.48 0 0 1-1.36-1A4.2 4.2 0 0 0 15 9.71a4.06 4.06 0 0 0-1.18-2.8c-.84 2.71-3.77 4.72-7.26 4.72a8.94 8.94 0 0 1-1.37-.11c-.27.13-.53.24-.78.34a5.86 5.86 0 0 0 5 2.45 6.59 6.59 0 0 0 1.27-.12 7.36 7.36 0 0 0 3.29.81 5.66 5.66 0 0 0 .67 0 .47.47 0 0 0 .39-.45.46.46 0 0 0-.39-.55z"/></symbol><symbol viewBox="0 0 97.16 97.16" id="clock" xmlns="http://www.w3.org/2000/svg"><path d="M48.58 0C21.793 0 0 21.793 0 48.58s21.793 48.58 48.58 48.58 48.58-21.793 48.58-48.58S75.367 0 48.58 0zm0 86.823c-21.087 0-38.244-17.155-38.244-38.243S27.493 10.337 48.58 10.337 86.824 27.492 86.824 48.58 69.667 86.823 48.58 86.823z"/><path d="M73.898 47.08H52.066V20.83a4 4 0 0 0-8 0v30.25a4 4 0 0 0 4 4h25.832a4 4 0 0 0 0-8z"/></symbol><symbol id="cutlery" viewBox="0 0 15 15" xmlns="http://www.w3.org/2000/svg"><defs><style>.ecls-1{fill:#fff}</style></defs><path class="ecls-1" d="M7.74 2.25a5 5 0 1 0 5 5 5 5 0 0 0-5-5zm0 8.74a3.77 3.77 0 1 1 3.77-3.77A3.77 3.77 0 0 1 7.74 11z"/><path class="ecls-1" d="M7.74 4.46a2.76 2.76 0 1 0 2.76 2.76 2.77 2.77 0 0 0-2.76-2.76zm6.95 3.18v-6a.14.14 0 0 0-.1-.13.13.13 0 0 0-.15.05A5.71 5.71 0 0 0 13.28 5v2.18a.47.47 0 0 0 .46.46h.19c-.19 1.94-.31 4.67-.31 5a.83.83 0 0 0 .69.91.83.83 0 0 0 .69-.91c0-.33-.12-3.06-.31-5zM2 6.44a1.3 1.3 0 0 0 .64-1.13l-.19-3.09a.22.22 0 0 0-.44 0l.12 2.48a.26.26 0 0 1-.25.3.26.26 0 0 1-.26-.26l-.06-2.5a.24.24 0 0 0-.48 0L1 4.72A.26.26 0 0 1 .77 5a.26.26 0 0 1-.26-.26l.13-2.5A.23.23 0 0 0 .41 2a.22.22 0 0 0-.22.21L0 5.31a1.32 1.32 0 0 0 .64 1.13.74.74 0 0 1 .36.72C.78 9.11.63 12.28.63 12.63a.83.83 0 0 0 .69.91.83.83 0 0 0 .68-.91c0-.35-.15-3.52-.36-5.47A.76.76 0 0 1 2 6.44z"/></symbol><symbol viewBox="0 0 96.124 96.123" id="facebook" xmlns="http://www.w3.org/2000/svg"><path d="M72.089.02L59.624 0C45.62 0 36.57 9.285 36.57 23.656v10.907H24.037a1.96 1.96 0 0 0-1.96 1.961v15.803a1.96 1.96 0 0 0 1.96 1.96H36.57v39.876a1.96 1.96 0 0 0 1.96 1.96h16.352a1.96 1.96 0 0 0 1.96-1.96V54.287h14.654a1.96 1.96 0 0 0 1.96-1.96l.006-15.803a1.963 1.963 0 0 0-1.961-1.961H56.842v-9.246c0-4.444 1.059-6.7 6.848-6.7l8.397-.003a1.96 1.96 0 0 0 1.959-1.96V1.98A1.96 1.96 0 0 0 72.089.02z"/></symbol><symbol viewBox="0 0 512 512" id="instagram" xmlns="http://www.w3.org/2000/svg"><path d="M352 0H160C71.648 0 0 71.648 0 160v192c0 88.352 71.648 160 160 160h192c88.352 0 160-71.648 160-160V160C512 71.648 440.352 0 352 0zm112 352c0 61.76-50.24 112-112 112H160c-61.76 0-112-50.24-112-112V160C48 98.24 98.24 48 160 48h192c61.76 0 112 50.24 112 112v192z"/><path d="M256 128c-70.688 0-128 57.312-128 128s57.312 128 128 128 128-57.312 128-128-57.312-128-128-128zm0 208c-44.096 0-80-35.904-80-80 0-44.128 35.904-80 80-80s80 35.872 80 80c0 44.096-35.904 80-80 80z"/><circle cx="393.6" cy="118.4" r="17.056"/></symbol><symbol viewBox="0 0 28 28" id="nutrition" xmlns="http://www.w3.org/2000/svg"><path d="M14 0a14 14 0 1 0 14 14A14 14 0 0 0 14 0zM7.69 18.39L6 15.88h-.47v2.51H3.79V9.51h1.74v5.05h.4l1.44-2.31h1.94L7.32 15l2.29 3.37zm4-1.65a1 1 0 0 0 .95.5 1 1 0 0 0 .72-.25.87.87 0 0 0 .28-.69h1.52a1.92 1.92 0 0 1-.7 1.57 2.66 2.66 0 0 1-1.82.64 2.67 2.67 0 0 1-2.14-.88 3.37 3.37 0 0 1-.76-2.26v-.17a3.39 3.39 0 0 1 .72-2.2 2.66 2.66 0 0 1 2.14-.89 2.59 2.59 0 0 1 1.85.66 2.19 2.19 0 0 1 .68 1.75v.06H13.6a1.22 1.22 0 0 0-.27-.83.9.9 0 0 0-.73-.33 1 1 0 0 0-.95.51 2.69 2.69 0 0 0-.29 1.32v.17a2.74 2.74 0 0 0 .29 1.32zm8.08 1.65a2.43 2.43 0 0 1-.16-.44 3.55 3.55 0 0 1-.09-.47 2.23 2.23 0 0 1-.68.75 1.7 1.7 0 0 1-1 .3 2.06 2.06 0 0 1-1.5-.5 1.8 1.8 0 0 1-.53-1.37 1.64 1.64 0 0 1 .7-1.41 3.55 3.55 0 0 1 2.05-.49h1v-.5a1 1 0 0 0-.26-.7.93.93 0 0 0-.7-.25.92.92 0 0 0-.63.2.7.7 0 0 0-.23.55h-1.69a1.58 1.58 0 0 1 .68-1.36 3 3 0 0 1 1.9-.57 2.78 2.78 0 0 1 1.81.57 2 2 0 0 1 .69 1.61v2.56a4.21 4.21 0 0 0 .07.81 3 3 0 0 0 .21.75zm2.72 0V9.51h1.74v8.88z"/><path d="M17.7 15.94a.9.9 0 0 0-.27.66.64.64 0 0 0 .21.5.76.76 0 0 0 .56.19 1.54 1.54 0 0 0 .8-.21 1.57 1.57 0 0 0 .49-.51v-.92h-1a1.14 1.14 0 0 0-.79.29z"/></symbol><symbol viewBox="0 0 24 24" id="odnoklassniki" xmlns="http://www.w3.org/2000/svg"><path d="M4.721 12.881c-.613 1.205.083 1.781 1.671 2.765 1.35.834 3.215 1.139 4.413 1.261l-4.721 4.541c-1.374 1.317.838 3.43 2.211 2.141l3.717-3.585c1.423 1.369 2.787 2.681 3.717 3.59 1.374 1.294 3.585-.801 2.226-2.141-.102-.097-5.037-4.831-4.736-4.541 1.213-.122 3.05-.445 4.384-1.261l-.001-.001c1.588-.989 2.284-1.564 1.68-2.769-.365-.684-1.349-1.256-2.659-.267 0 0-1.769 1.355-4.622 1.355-2.854 0-4.622-1.355-4.622-1.355-1.309-.994-2.297-.417-2.658.267z"/><path d="M11.999 12.142c3.478 0 6.318-2.718 6.318-6.064 0-3.36-2.84-6.078-6.318-6.078C8.52 0 5.68 2.718 5.68 6.078c0 3.346 2.84 6.064 6.319 6.064zm0-9.063c1.709 0 3.103 1.341 3.103 2.999 0 1.644-1.394 2.985-3.103 2.985S8.896 7.722 8.896 6.078c-.001-1.659 1.393-2.999 3.103-2.999z"/></symbol><symbol viewBox="0 0 30 30" id="play" xmlns="http://www.w3.org/2000/svg"><path d="M15 0a15 15 0 1 0 15 15A15 15 0 0 0 15 0zm-3.75 22.5v-15L22.5 15z"/></symbol><symbol viewBox="0 0 15 15" id="search" xmlns="http://www.w3.org/2000/svg"><path d="M10.28 8.9a5.65 5.65 0 1 0-1.74 1.6l4.16 4.13A1.18 1.18 0 1 0 14.41 13zm-4.61.39A3.64 3.64 0 1 1 9.3 5.64a3.64 3.64 0 0 1-3.63 3.65z"/></symbol><symbol viewBox="0 -39 512 512" id="telegram" xmlns="http://www.w3.org/2000/svg"><path d="M504.094 11.86C497.84 4.21 488.473 0 477.714 0c-5.847 0-12.042 1.23-18.41 3.664L25.907 169.105c-23 8.778-26.097 21.95-25.898 29.02s4.039 20.047 27.5 27.512c.14.043.281.086.422.125l89.898 25.726 48.617 139.024c6.63 18.953 21.508 30.726 38.836 30.726 10.926 0 21.672-4.578 31.078-13.234l55.606-51.2 80.652 64.942c.008.008.02.012.028.02l.765.617.215.168c8.965 6.953 18.75 10.625 28.309 10.629h.003c18.676 0 33.547-13.825 37.88-35.215l71.011-350.64c2.852-14.075.461-26.669-6.734-35.466zM147.902 246.601l173.442-88.606L213.348 272.75a14.975 14.975 0 0 0-3.641 6.684l-20.824 84.351zm68.133 139.332c-.719.66-1.441 1.25-2.164 1.793l19.32-78.25 35.145 28.3zm265.39-344.567l-71.01 350.645c-.685 3.355-2.868 11.164-8.481 11.164-2.774 0-6.258-1.512-9.825-4.258l-91.39-73.586a.173.173 0 0 0-.043-.031l-54.38-43.79 156.177-165.949a15 15 0 0 0-17.746-23.636L127.859 223.152l-91.12-26.07 433.265-165.39c3.66-1.399 6.215-1.692 7.71-1.692.919 0 2.552.11 3.157.855.797.973 1.813 4.29.555 10.512zm0 0"/></symbol><symbol viewBox="0 0 24 24" id="vk" xmlns="http://www.w3.org/2000/svg"><path d="M19.915 13.028c-.388-.49-.277-.708 0-1.146.005-.005 3.208-4.431 3.538-5.932l.002-.001c.164-.547 0-.949-.793-.949h-2.624c-.668 0-.976.345-1.141.731 0 0-1.336 3.198-3.226 5.271-.61.599-.892.791-1.225.791-.164 0-.419-.192-.419-.739V5.949c0-.656-.187-.949-.74-.949H9.161c-.419 0-.668.306-.668.591 0 .622.945.765 1.043 2.515v3.797c0 .832-.151.985-.486.985-.892 0-3.057-3.211-4.34-6.886-.259-.713-.512-1.001-1.185-1.001H.9c-.749 0-.9.345-.9.731 0 .682.892 4.073 4.148 8.553C6.318 17.343 9.374 19 12.154 19c1.671 0 1.875-.368 1.875-1.001 0-2.922-.151-3.198.686-3.198.388 0 1.056.192 2.616 1.667C19.114 18.217 19.407 19 20.405 19h2.624c.748 0 1.127-.368.909-1.094-.499-1.527-3.871-4.668-4.023-4.878z"/></symbol><symbol viewBox="0 0 90.677 90.677" id="youtube" xmlns="http://www.w3.org/2000/svg"><path d="M82.287 45.907c-.937-4.071-4.267-7.074-8.275-7.521-9.489-1.06-19.098-1.065-28.66-1.06-9.566-.005-19.173 0-28.665 1.06-4.006.448-7.334 3.451-8.27 7.521-1.334 5.797-1.35 12.125-1.35 18.094 0 5.969 0 12.296 1.334 18.093.936 4.07 4.264 7.073 8.272 7.521 9.49 1.061 19.097 1.065 28.662 1.061 9.566.005 19.171 0 28.664-1.061 4.006-.448 7.336-3.451 8.272-7.521 1.333-5.797 1.34-12.124 1.34-18.093-.001-5.97.009-12.297-1.324-18.094zM28.9 50.4h-5.54v29.438h-5.146V50.4h-5.439v-4.822H28.9V50.4zm13.977 29.439h-4.629v-2.785c-1.839 2.108-3.585 3.136-5.286 3.136-1.491 0-2.517-.604-2.98-1.897-.252-.772-.408-1.994-.408-3.796V54.311h4.625v18.795c0 1.084 0 1.647.042 1.799.111.718.462 1.082 1.082 1.082.928 0 1.898-.715 2.924-2.166v-19.51h4.629l.001 25.528zm17.573-7.662c0 2.361-.159 4.062-.468 5.144-.618 1.899-1.855 2.869-3.695 2.869-1.646 0-3.234-.914-4.781-2.824v2.474h-4.625V45.578h4.625v11.189c1.494-1.839 3.08-2.769 4.781-2.769 1.84 0 3.078.969 3.695 2.88.311 1.027.468 2.715.468 5.132v10.167zm17.457-4.259h-9.251v4.525c0 2.363.773 3.543 2.363 3.543 1.139 0 1.802-.619 2.066-1.855.043-.251.104-1.279.104-3.134h4.719v.675c0 1.491-.057 2.518-.099 2.98a6.591 6.591 0 0 1-1.08 2.771c-1.281 1.854-3.179 2.768-5.595 2.768-2.42 0-4.262-.871-5.599-2.614-.981-1.278-1.485-3.29-1.485-6.003v-8.941c0-2.729.447-4.725 1.43-6.015 1.336-1.747 3.177-2.617 5.54-2.617 2.321 0 4.161.87 5.457 2.617.969 1.29 1.432 3.286 1.432 6.015v5.285h-.002z"/><path d="M70.978 58.163c-1.546 0-2.321 1.181-2.321 3.541v2.362h4.625v-2.362c-.001-2.36-.774-3.541-2.304-3.541zm-17.166 0c-.762 0-1.534.36-2.307 1.125v15.559c.772.774 1.545 1.14 2.307 1.14 1.334 0 2.012-1.14 2.012-3.445V61.646c0-2.302-.678-3.483-2.012-3.483zm2.584-23.19c1.705 0 3.479-1.036 5.34-3.168v2.814h4.675V8.82h-4.675v19.718c-1.036 1.464-2.018 2.188-2.953 2.188-.626 0-.994-.37-1.096-1.095-.057-.153-.057-.722-.057-1.817V8.82h-4.66v20.4c0 1.822.156 3.055.414 3.836.47 1.307 1.507 1.917 3.012 1.917zM23.851 20.598v14.021h5.184V20.598L35.271 0h-5.242l-3.537 13.595L22.812 0h-5.455c1.093 3.209 2.23 6.434 3.323 9.646 1.663 4.828 2.701 8.468 3.171 10.952zm18.368 14.375c2.342 0 4.162-.881 5.453-2.641.981-1.291 1.451-3.325 1.451-6.067v-9.034c0-2.758-.469-4.774-1.451-6.077-1.291-1.765-3.11-2.646-5.453-2.646-2.33 0-4.149.881-5.443 2.646-.993 1.303-1.463 3.319-1.463 6.077v9.034c0 2.742.47 4.776 1.463 6.067 1.293 1.76 3.113 2.641 5.443 2.641zm-2.231-18.679c0-2.387.724-3.577 2.231-3.577s2.229 1.189 2.229 3.577v10.852c0 2.387-.722 3.581-2.229 3.581-1.507 0-2.231-1.194-2.231-3.581V16.294z"/></symbol></svg>